<svg width="16" height="15" viewBox="0 0 16 15" fill="none" xmlns="http://www.w3.org/2000/svg">
<path d="M3.13379 6.2668V11.8668L8.00046 14.6668L12.8671 11.8668V6.2668L8.00046 3.4668L3.13379 6.2668ZM10.8671 6.6668L8.00046 8.33346L5.13379 6.6668L8.00046 5.00013L10.8671 6.6668ZM4.46712 7.80013L7.33379 9.4668V12.8001L4.46712 11.1335V7.80013ZM8.66712 12.8001V9.4668L11.5338 7.80013V11.1335L8.66712 12.8001Z" fill="#8AAFE8"/>
<path d="M2.14343 11.6575L0.00976562 12.8953L0.678832 14.0486L2.8125 12.8108L2.14343 11.6575Z" fill="#8AAFE8"/>
<path d="M13.8693 11.7077L13.2002 12.8611L15.3339 14.0989L16.0029 12.9455L13.8693 11.7077Z" fill="#8AAFE8"/>
<path d="M8.66634 0H7.33301V2.66667H8.66634V0Z" fill="#8AAFE8"/>
</svg>
