<svg width="681" height="280" viewBox="0 0 681 280" fill="none" xmlns="http://www.w3.org/2000/svg">
<path d="M0 116.667L23.3364 125.741L33.9439 152.963L55.1589 164.63H208.967L281.098 145.185L317.164 116.667L340.5 29.8148L350.047 57.037L373.383 70L391.416 98.5185L410.509 70L422.178 0L440.21 50.5556L458.243 29.8148L474.154 92.037L498.551 70L507.037 50.5556L518.706 29.8148L529.313 186.667L543.103 145.185L556.893 116.667L573.864 164.63L586.593 186.667L601.444 164.63H622.659L629.023 134.815L640.692 116.667L658.724 98.5185L666.15 125.741L681 85.5555V280H0V116.667Z" fill="url(#paint0_linear_98_316)"/>
<defs>
<linearGradient id="paint0_linear_98_316" x1="340.5" y1="0" x2="340.5" y2="280" gradientUnits="userSpaceOnUse">
<stop stop-color="#F14B47" stop-opacity="0.4"/>
<stop offset="1" stop-color="#F14B47" stop-opacity="0"/>
</linearGradient>
</defs>
</svg>
