<svg width="30" height="30" viewBox="0 0 30 30" fill="none" xmlns="http://www.w3.org/2000/svg">
<circle cx="15" cy="15" r="15" fill="#DCF3F3"/>
<g clip-path="url(#clip0_98_235)">
<path d="M10.6924 16.3419V21.6752H12.0599V14.9744L10.6924 16.3419Z" fill="#8FD1C5"/>
<path d="M7.95703 19.077V21.6753H9.32455V17.7095L7.95703 19.077Z" fill="#8FD1C5"/>
<path d="M13.4268 16.3418V21.6751H14.7943V17.7093L13.4268 16.3418Z" fill="#8FD1C5"/>
<path d="M21.6318 12.2393V21.6752H22.9994V10.8718L21.6318 12.2393Z" fill="#8FD1C5"/>
<path d="M16.1621 17.7093V21.6751H17.5296V16.3418L16.1621 17.7093Z" fill="#8FD1C5"/>
<path d="M18.8975 14.9745V21.6753H20.265V13.6069L18.8975 14.9745Z" fill="#8FD1C5"/>
<path d="M22.0427 8L15.4786 14.5641L12.0598 11.1453L7 16.2051C7.34188 16.547 7.61538 16.8205 7.95726 17.1624L12.0598 13.0598L15.4786 16.4786L23 8.95726L22.0427 8Z" fill="#8FD1C5"/>
</g>
<defs>
<clipPath id="clip0_98_235">
<rect width="16" height="13.6752" fill="white" transform="translate(7 8)"/>
</clipPath>
</defs>
</svg>
