<svg width="14" height="16" viewBox="0 0 14 16" fill="none" xmlns="http://www.w3.org/2000/svg">
<path d="M0 2V6.66667C0 11.2667 2.99091 14.8 7 16C11.0091 14.8 14 11.2667 14 6.66667V2C9.67273 -0.666667 4.32727 -0.666667 0 2ZM12.7273 6.66667C12.7273 10.4 10.5 13.4667 7 14.6C3.5 13.4667 1.27273 10.4 1.27273 6.66667V2.8C3.05455 1.86667 5.02727 1.33333 7 1.33333C8.97273 1.33333 10.9455 1.86667 12.7273 2.8V6.66667ZM4.26364 6.86667L3.37273 7.8L6.36364 10.6667L11.0727 5.6L10.1182 4.66667L6.3 8.8L4.26364 6.86667Z" fill="#93CB9C"/>
</svg>
