<svg width="30" height="30" viewBox="0 0 30 30" fill="none" xmlns="http://www.w3.org/2000/svg">
<circle cx="15" cy="15" r="15" fill="#EAEAFD"/>
<g clip-path="url(#clip0_98_222)">
<path d="M7 20.3333H13.6667V17H12.3333C11.6 17 11 16.4 11 15.6667C11 14.9333 11.6 14.3333 12.3333 14.3333H13.6667V11H7V20.3333ZM8.33333 12.3333H12.3333V13C10.8667 13 9.66667 14.2 9.66667 15.6667C9.66667 17.1333 10.8667 18.3333 12.3333 18.3333V19H8.33333V12.3333ZM14.3333 14.3333H15.6667C16.4 14.3333 17 14.9333 17 15.6667C17 16.4 16.4 17 15.6667 17H14.3333V20.3333H21V11H14.3333V14.3333ZM15.6667 12.3333H19.6667V19H15.6667V18.3333C17.1333 18.3333 18.3333 17.1333 18.3333 15.6667C18.3333 14.2 17.1333 13 15.6667 13V12.3333ZM8.33333 9V10.3333H21.6667V19H23V9H8.33333Z" fill="#C0C0E4"/>
</g>
<defs>
<clipPath id="clip0_98_222">
<rect width="16" height="11.3333" fill="white" transform="translate(7 9)"/>
</clipPath>
</defs>
</svg>
