<svg width="16" height="16" viewBox="0 0 16 16" fill="none" xmlns="http://www.w3.org/2000/svg">
<path d="M4.36364 0H0V4.36364H4.36364V0ZM2.90909 2.90909H1.45455V1.45455H2.90909V2.90909ZM11.6364 0V4.36364H13.0909V16H14.5455V4.36364H16V0H11.6364ZM14.5455 2.90909H13.0909V1.45455H14.5455V2.90909ZM0 16H4.36364V11.6364H0V16ZM1.45455 13.0909H2.90909V14.5455H1.45455V13.0909ZM4.36364 5.81818H0V10.1818H3.34545L7.27273 14.1091V16H8.72727V13.5273L4.36364 9.16364V5.81818ZM2.90909 8.72727H1.45455V7.27273H2.90909V8.72727ZM8.72727 4.36364H10.1818V0H5.81818V4.36364H7.27273V8.29091L10.1818 11.2V16H11.6364V10.6182L8.72727 7.70909V4.36364ZM7.27273 1.45455H8.72727V2.90909H7.27273V1.45455Z" fill="#C0C0E4"/>
</svg>
