<svg width="27" height="24" viewBox="0 0 27 24" fill="none" xmlns="http://www.w3.org/2000/svg">
<path d="M10.1712 20.6364H11.6797L11.6925 19.1598C14.4602 18.9489 16.0646 17.4787 16.071 15.2607C16.0646 13.081 14.4219 11.924 12.1463 11.4126L11.7692 11.3232L11.7947 8.12713C12.6449 8.32528 13.1626 8.86861 13.2393 9.67401H15.892C15.8601 7.55824 14.2812 6.04332 11.8203 5.77486L11.8331 4.27273H10.3246L10.3118 5.76207C7.8125 6.00497 6.0483 7.51349 6.06108 9.69318C6.05469 11.6236 7.41619 12.7294 9.62784 13.2599L10.2415 13.4134L10.2095 16.7947C9.16761 16.5966 8.46449 15.9574 8.39418 14.8899H5.71591C5.77983 17.4723 7.47372 18.9169 10.1839 19.1534L10.1712 20.6364ZM11.718 16.7947L11.7436 13.8097C12.7344 14.1229 13.2713 14.5256 13.2777 15.2543C13.2713 16.0277 12.6832 16.603 11.718 16.7947ZM10.2607 10.9332C9.46165 10.6584 8.88636 10.2429 8.89915 9.50781C8.89915 8.82386 9.38494 8.29332 10.2862 8.10795L10.2607 10.9332Z" fill="#C4C4C4"/>
</svg>
