<svg width="24" height="22" viewBox="0 0 24 22" fill="none" xmlns="http://www.w3.org/2000/svg">
<g clip-path="url(#clip0)">
<ellipse cx="13.2565" cy="9.49413" rx="8.502" ry="8.76769" fill="#C4C4C4"/>
<path d="M9.41031 16.398L10.0365 14.9605L8.54119 14.2677L13.1036 3.79433L14.5989 4.48707L15.2443 3.00554L16.217 3.45616L15.5716 4.93769L15.6007 4.95114C15.9394 5.10808 16.2427 5.26623 16.5106 5.42559L17.1752 3.90005L18.1479 4.35067L17.413 6.03757C17.9643 6.48099 18.3096 6.97003 18.4489 7.50467C18.5979 8.0438 18.5212 8.66052 18.2187 9.35484C17.9588 9.95136 17.633 10.4057 17.2411 10.7177C16.8493 11.0298 16.4358 11.1379 16.0006 11.0421L15.9687 11.1155C16.2195 11.314 16.4179 11.5528 16.5639 11.8319C16.7098 12.1111 16.7781 12.4483 16.7687 12.8435C16.7594 13.2388 16.6355 13.7102 16.3969 14.2579C16.0731 15.0011 15.6139 15.5346 15.0192 15.8585C14.4287 16.1726 13.7591 16.2678 13.0104 16.1443L12.3139 17.7431L11.3412 17.2925L11.9674 15.855C11.8803 15.8146 11.7883 15.772 11.6915 15.7272L11.0092 15.4111L10.383 16.8486L9.41031 16.398ZM14.0391 9.2167C14.523 9.44089 14.9017 9.4929 15.175 9.37273C15.4484 9.25256 15.6703 8.9969 15.8407 8.60573C16.0153 8.20479 16.0297 7.86474 15.8837 7.58559C15.7378 7.30644 15.4229 7.05477 14.939 6.83059L14.5034 6.62882L13.4874 8.96113L14.0391 9.2167ZM12.7206 10.7214L11.5321 13.4497L12.2435 13.7793C12.7468 14.0124 13.1506 14.0467 13.4549 13.8821C13.7732 13.7123 14.026 13.4122 14.2135 12.9819C14.3839 12.5908 14.4186 12.2307 14.3175 11.9019C14.2208 11.5632 13.9014 11.2684 13.3594 11.0173L12.7206 10.7214Z" fill="#191753"/>
</g>
<defs>
<clipPath id="clip0">
<rect width="24" height="22" fill="white"/>
</clipPath>
</defs>
</svg>
