<svg width="27" height="24" viewBox="0 0 27 24" fill="none" xmlns="http://www.w3.org/2000/svg">
<path d="M23.836 17.5078H3.16415C3.04814 17.5078 2.95322 17.5922 2.95322 17.6953V19.0078C2.95322 19.1109 3.04814 19.1953 3.16415 19.1953H23.836C23.952 19.1953 24.047 19.1109 24.047 19.0078V17.6953C24.047 17.5922 23.952 17.5078 23.836 17.5078ZM4.36913 14.5734L5.41591 15.4992C5.49765 15.5719 5.63212 15.5719 5.71386 15.4992L11.9022 10.0172L14.4757 12.2977C14.6342 12.4373 14.8484 12.5156 15.0716 12.5156C15.2948 12.5156 15.5089 12.4373 15.6675 12.2977L22.6337 6.12891C22.7154 6.05625 22.7154 5.93672 22.6337 5.86406L21.5869 4.93594C21.5473 4.90104 21.4937 4.88147 21.4379 4.88147C21.3821 4.88147 21.3286 4.90104 21.289 4.93594L15.0742 10.4438L12.4981 8.16328C12.3396 8.02365 12.1254 7.94531 11.9022 7.94531C11.6791 7.94531 11.4649 8.02365 11.3063 8.16328L4.36913 14.3086C4.34941 14.3259 4.33375 14.3465 4.32306 14.3693C4.31238 14.392 4.30687 14.4164 4.30687 14.441C4.30687 14.4657 4.31238 14.49 4.32306 14.5128C4.33375 14.5355 4.34941 14.5561 4.36913 14.5734Z" fill="#68E1FD"/>
</svg>
