<svg width="52" height="53" viewBox="0 0 52 53" fill="none" xmlns="http://www.w3.org/2000/svg">
<g opacity="0.4">
<path d="M25.9973 52.0029C40.3553 52.0029 51.9947 40.3623 51.9947 26.0029C51.9947 11.6435 40.3553 0.00292969 25.9973 0.00292969C11.6394 0.00292969 0 11.6435 0 26.0029C0 40.3623 11.6394 52.0029 25.9973 52.0029Z" fill="#6273AF"/>
<mask id="mask0_2_329" style="mask-type:alpha" maskUnits="userSpaceOnUse" x="0" y="0" width="52" height="53">
<path d="M25.9973 52.0029C40.3553 52.0029 51.9947 40.3623 51.9947 26.0029C51.9947 11.6435 40.3553 0.00292969 25.9973 0.00292969C11.6394 0.00292969 0 11.6435 0 26.0029C0 40.3623 11.6394 52.0029 25.9973 52.0029Z" fill="#AEBFCF"/>
</mask>
<g mask="url(#mask0_2_329)">
<path d="M22.8806 27.0438L24.9604 29.1238L6.76226 47.8438L3.64258 44.7238L22.8806 27.0438Z" fill="#D7DCDE"/>
<path d="M22.8147 27.0438L23.8546 28.0838L3.90164 47.5838L2.3418 46.0238L22.8147 27.0438Z" fill="#F7F7F7"/>
</g>
<path opacity="0.2" d="M16.1154 10.1443C17.4412 9.91029 18.2217 9.13037 18.4551 7.8045C18.6891 9.13037 19.4695 9.91029 20.7949 10.1443C19.4695 10.3788 18.6891 11.1582 18.4551 12.484C18.2217 11.1582 17.4412 10.3788 16.1154 10.1443Z" fill="white"/>
<path opacity="0.1" d="M36.9156 38.7442C38.2414 38.5102 39.0219 37.7302 39.2553 36.4042C39.4893 37.7302 40.2697 38.5102 41.5951 38.7442C40.2697 38.9787 39.4893 39.7582 39.2553 41.0842C39.0219 39.7582 38.2414 38.9787 36.9156 38.7442ZM5.71875 33.5442C7.04461 33.3102 7.82506 32.5302 8.05851 31.2042C8.29249 32.5302 9.07293 33.3102 10.3983 33.5442C9.07293 33.7787 8.29249 34.5582 8.05851 35.8842C7.82506 34.5582 7.04461 33.7787 5.71875 33.5442Z" fill="white"/>
<path d="M51.9974 0.0552959C51.9163 0.0646559 51.9366 0.0854559 51.9454 0.0032959C39.8223 1.55238 32.9471 6.38942 29.0495 11.4615C28.9117 11.6412 28.7761 11.8227 28.6429 12.0059L28.6388 12.0111C24.448 17.7852 23.9655 23.8255 23.9203 25.4833H23.4003L22.8804 27.0433L24.9602 29.1233L26.52 28.6033V28.0833C27.7542 28.0592 28.9837 27.9247 30.1939 27.6813L30.195 27.6824C30.574 27.5877 30.6796 27.7219 30.6796 29.6433V34.3233C30.6796 35.264 31.1699 35.6217 31.6909 35.1002C32.9507 33.8376 33.2523 33.5282 36.1104 30.6656C38.2734 28.4988 38.5417 27.2362 37.6479 24.9149C43.6538 21.5152 50.1422 14.5051 51.9974 0.0552959Z" fill="#8DAFF0"/>
<path d="M24.9579 29.1229L22.8781 27.0429L23.398 25.4829H24.4379L26.5177 27.5629V28.6029L24.9579 29.1229ZM27.0377 14.5629C26.1444 14.2041 25.9978 14.0429 24.9579 14.0429C23.918 14.0429 22.7829 14.7605 21.3905 16.1557C19.1787 18.3704 18.8688 18.672 16.9627 20.5799C16.3398 21.2039 17.2954 21.3229 18.7185 21.3229C21.4394 21.3229 23.5525 21.2579 24.3293 22.0613C25.3551 23.1221 27.0377 14.5629 27.0377 14.5629ZM51.9951 0.00292969C51.6629 2.58889 51.1809 4.98401 50.5804 7.11549C50.0349 6.09109 49.2482 4.84621 48.2406 3.85405C47.1222 2.75165 45.7386 1.96541 44.6914 1.46985C47.8246 0.57025 50.3225 0.21717 51.9951 0.00292969Z" fill="#7B9EE0"/>
<path opacity="0.3" d="M37.6462 24.9149C38.5399 27.2357 38.3283 28.4447 36.1622 30.611C35.7234 31.0499 32.0921 34.6977 31.6886 35.1002C31.1671 35.6212 30.695 35.264 30.6778 34.3233V33.9843C32.2377 32.4243 35.7156 29.3365 36.3972 28.0833C36.7966 27.3496 36.5803 26.1832 36.3972 25.4833C34.6752 26.3985 30.4095 27.6122 30.1932 27.6824C28.5492 28.0183 27.281 28.0537 26.5182 28.0833V27.7422C26.5182 27.7422 42.1037 22.7174 51.9957 0.0032959C50.127 14.5877 43.6521 21.5152 37.6462 24.9149Z" fill="white"/>
<path d="M40.2997 14.563C38.4362 14.563 36.92 13.0469 36.92 11.1834C36.92 9.31988 38.4362 7.80371 40.2997 7.80371C42.1632 7.80371 43.6794 9.31988 43.6794 11.1834C43.6794 13.0469 42.1632 14.563 40.2997 14.563Z" fill="white"/>
<path d="M40.3002 8.32346C41.0586 8.32346 41.786 8.62475 42.3223 9.16105C42.8586 9.69735 43.1599 10.4247 43.1599 11.1832C43.1599 11.9416 42.8586 12.669 42.3223 13.2053C41.786 13.7416 41.0586 14.0429 40.3002 14.0429C39.5417 14.0429 38.8144 13.7416 38.2781 13.2053C37.7418 12.669 37.4405 11.9416 37.4405 11.1832C37.4405 10.4247 37.7418 9.69735 38.2781 9.16105C38.8144 8.62475 39.5417 8.32346 40.3002 8.32346ZM40.3002 7.28357C38.1492 7.28357 36.4006 9.03267 36.4006 11.1832C36.4006 13.3337 38.1492 15.0828 40.3002 15.0828C42.4512 15.0828 44.1998 13.3337 44.1998 11.1832C44.1998 9.03267 42.4512 7.28357 40.3002 7.28357Z" fill="#7B9EE0"/>
</g>
</svg>
