<svg width="104" height="23" viewBox="0 0 104 23" fill="none" xmlns="http://www.w3.org/2000/svg">
<path d="M36.6791 6.09815H44.7607V8.10116H39.0456V10.7229H44.0492V12.7027H39.0456V17.4821H36.6791V6.09815Z" fill="#2C3760"/>
<path d="M48.4497 8.04703H46.2147V6.01308H48.4497V8.04703ZM46.2147 9.0524H48.4497V17.4821H46.2147V9.0524Z" fill="#2C3760"/>
<path d="M55.263 8.85133C56.1344 8.85133 56.8459 9.08076 57.3975 9.53962C57.9543 9.99333 58.2328 10.7486 58.2328 11.8056V17.4821H55.9745V12.3547C55.9745 11.9113 55.9152 11.571 55.7967 11.3338C55.5801 10.9007 55.1677 10.6842 54.5593 10.6842C53.8117 10.6842 53.2987 11.0013 53.0203 11.6354C52.8759 11.9706 52.8037 12.3985 52.8037 12.9192V17.4821H50.6074V9.06787H52.7341V10.2975C53.0177 9.86444 53.2858 9.55251 53.5384 9.36175C53.9921 9.02147 54.567 8.85133 55.263 8.85133Z" fill="#2C3760"/>
<path d="M63.3834 8.85133C63.8938 8.85133 64.3475 8.96475 64.7445 9.19161C65.1415 9.41331 65.4637 9.72265 65.7112 10.1196V6.09815H67.9462V17.4821H65.804V16.3143C65.4895 16.8144 65.1312 17.1779 64.729 17.4047C64.3269 17.6316 63.8268 17.745 63.2287 17.745C62.2439 17.745 61.4139 17.348 60.7385 16.554C60.0682 15.7549 59.7331 14.7315 59.7331 13.4838C59.7331 12.0453 60.0631 10.9136 60.723 10.0887C61.3881 9.26379 62.2749 8.85133 63.3834 8.85133ZM63.8629 15.8889C64.4867 15.8889 64.961 15.6569 65.2858 15.1929C65.6107 14.7289 65.7731 14.1283 65.7731 13.391C65.7731 12.3598 65.5127 11.6226 64.992 11.1792C64.6723 10.9111 64.3011 10.777 63.8783 10.777C63.2338 10.777 62.7595 11.0219 62.4553 11.5117C62.1563 11.9963 62.0068 12.5996 62.0068 13.3214C62.0068 14.0999 62.1589 14.7237 62.4631 15.1929C62.7724 15.6569 63.239 15.8889 63.8629 15.8889Z" fill="#2C3760"/>
<path d="M71.1402 13.8163C71.1763 14.4608 71.3284 14.9841 71.5965 15.3863C72.1069 16.139 73.0066 16.5154 74.2955 16.5154C74.873 16.5154 75.3989 16.4329 75.8732 16.2679C76.7909 15.9482 77.2498 15.3759 77.2498 14.551C77.2498 13.9323 77.0565 13.4915 76.6698 13.2286C76.2779 12.9708 75.6644 12.7465 74.8292 12.5557L73.2902 12.2077C72.2848 11.9809 71.5733 11.7308 71.1557 11.4576C70.4339 10.9832 70.073 10.2743 70.073 9.33081C70.073 8.30997 70.4261 7.47216 71.1325 6.81738C71.8388 6.1626 72.839 5.83521 74.1331 5.83521C75.3241 5.83521 76.3346 6.12393 77.1647 6.70137C78 7.27366 78.4176 8.19139 78.4176 9.45455H76.9714C76.894 8.84617 76.7291 8.37958 76.4764 8.05476C76.0073 7.46185 75.2107 7.16539 74.0867 7.16539C73.1793 7.16539 72.5271 7.35616 72.1301 7.73768C71.7331 8.11921 71.5346 8.5626 71.5346 9.06787C71.5346 9.62469 71.7666 10.032 72.2307 10.2898C72.5348 10.4548 73.2231 10.661 74.2955 10.9085L75.8887 11.272C76.6569 11.4473 77.2498 11.687 77.6674 11.9912C78.3892 12.5222 78.7501 13.293 78.7501 14.3035C78.7501 15.5616 78.2913 16.4612 77.3735 17.0026C76.461 17.5439 75.3989 17.8146 74.1873 17.8146C72.7746 17.8146 71.6687 17.4537 70.8695 16.7319C70.0704 16.0153 69.6786 15.0434 69.694 13.8163H71.1402Z" fill="#2C3760"/>
<path d="M83.7074 8.9596C84.6406 8.9596 85.3985 9.18645 85.9811 9.64016C86.5688 10.0939 86.922 10.875 87.0406 11.9835H85.6872C85.6047 11.473 85.4165 11.0503 85.1227 10.7151C84.8288 10.3749 84.357 10.2047 83.7074 10.2047C82.8206 10.2047 82.1864 10.6378 81.8049 11.504C81.5574 12.0659 81.4337 12.7594 81.4337 13.5843C81.4337 14.4144 81.609 15.113 81.9596 15.6801C82.3102 16.2473 82.8618 16.5308 83.6146 16.5308C84.192 16.5308 84.6483 16.3555 84.9834 16.005C85.3237 15.6492 85.5583 15.1646 85.6872 14.551H87.0406C86.8859 15.6492 86.4992 16.4535 85.8805 16.9639C85.2619 17.4692 84.4704 17.7218 83.5063 17.7218C82.4236 17.7218 81.56 17.3274 80.9155 16.5386C80.2711 15.7446 79.9488 14.7547 79.9488 13.5689C79.9488 12.1149 80.302 10.9832 81.0084 10.1738C81.7147 9.36433 82.6144 8.9596 83.7074 8.9596Z" fill="#2C3760"/>
<path d="M89.4999 15.278C89.4999 15.6801 89.6468 15.9972 89.9407 16.2292C90.2346 16.4612 90.5826 16.5772 90.9848 16.5772C91.4746 16.5772 91.9489 16.4638 92.4077 16.237C93.1811 15.8606 93.5678 15.2445 93.5678 14.3886V13.2672C93.3977 13.3755 93.1785 13.4657 92.9104 13.5379C92.6423 13.6101 92.3794 13.6617 92.1216 13.6926L91.2786 13.8009C90.7734 13.8679 90.3944 13.9736 90.1418 14.1179C89.7139 14.3603 89.4999 14.7469 89.4999 15.278ZM92.8718 12.4629C93.1914 12.4217 93.4054 12.2876 93.5137 12.0608C93.5755 11.9371 93.6065 11.7592 93.6065 11.5272C93.6065 11.0528 93.4363 10.71 93.096 10.4986C92.7609 10.2821 92.2789 10.1738 91.6498 10.1738C90.9229 10.1738 90.4073 10.3697 90.1031 10.7615C89.933 10.9781 89.8221 11.3003 89.7706 11.7282H88.4713C88.4971 10.7074 88.8271 9.99849 89.4612 9.60149C90.1005 9.19934 90.8404 8.99827 91.6808 8.99827C92.6552 8.99827 93.4466 9.18387 94.055 9.55509C94.6582 9.9263 94.9599 10.5038 94.9599 11.2874V16.0591C94.9599 16.2034 94.9882 16.3195 95.0449 16.4071C95.1068 16.4948 95.2331 16.5386 95.4239 16.5386C95.4857 16.5386 95.5553 16.536 95.6327 16.5308C95.71 16.5205 95.7925 16.5076 95.8802 16.4922V17.5207C95.6636 17.5826 95.4986 17.6213 95.3852 17.6368C95.2718 17.6522 95.1171 17.66 94.9212 17.66C94.4417 17.66 94.0937 17.4898 93.8771 17.1495C93.7637 16.9691 93.6838 16.7139 93.6374 16.3839C93.3538 16.7551 92.9465 17.0774 92.4155 17.3506C91.8844 17.6239 91.2993 17.7605 90.6599 17.7605C89.8917 17.7605 89.2627 17.5285 88.7729 17.0645C88.2883 16.5953 88.046 16.0101 88.046 15.3089C88.046 14.5407 88.2857 13.9452 88.7652 13.5225C89.2447 13.0997 89.8737 12.8393 90.6522 12.7414L92.8718 12.4629Z" fill="#2C3760"/>
<path d="M97.249 9.19934H98.5715V10.3749C98.9633 9.89021 99.3783 9.5422 99.8166 9.33081C100.255 9.11943 100.742 9.01373 101.278 9.01373C102.454 9.01373 103.248 9.42362 103.66 10.2434C103.887 10.6919 104 11.3338 104 12.1691V17.4821H102.585V12.2619C102.585 11.7566 102.51 11.3493 102.361 11.0399C102.113 10.5244 101.665 10.2666 101.015 10.2666C100.685 10.2666 100.415 10.3001 100.203 10.3671C99.8217 10.4805 99.4866 10.7074 99.1979 11.0477C98.9659 11.3209 98.8138 11.6045 98.7416 11.8984C98.6746 12.1871 98.6411 12.6021 98.6411 13.1435V17.4821H97.249V9.19934Z" fill="#2C3760"/>
<path fill-rule="evenodd" clip-rule="evenodd" d="M11.2535 16.671C14.7064 16.671 17.5055 13.8719 17.5055 10.419C17.5055 6.96604 14.7064 4.16691 11.2535 4.16691C7.80058 4.16691 5.00144 6.96604 5.00144 10.419C5.00144 13.8719 7.80058 16.671 11.2535 16.671ZM11.2535 18.3382C15.6272 18.3382 19.1727 14.7926 19.1727 10.419C19.1727 6.04527 15.6272 2.49969 11.2535 2.49969C6.8798 2.49969 3.33423 6.04527 3.33423 10.419C3.33423 14.7926 6.8798 18.3382 11.2535 18.3382Z" fill="#2C3760"/>
<path fill-rule="evenodd" clip-rule="evenodd" d="M16.9338 14.2625L25.6867 21.3482L25.1622 21.9961L16.4093 14.9104L16.9338 14.2625Z" fill="#2C3760"/>
<path fill-rule="evenodd" clip-rule="evenodd" d="M19.808 14.9608L26.4769 20.3792L24.3742 22.9671L17.7054 17.5486L19.808 14.9608Z" fill="#2C3760"/>
<path fill-rule="evenodd" clip-rule="evenodd" d="M11.2535 6.25096C8.95159 6.25096 7.0855 8.11705 7.0855 10.419H6.25189C6.25189 7.65667 8.4912 5.41736 11.2535 5.41736V6.25096Z" fill="#2C3760"/>
<path fill-rule="evenodd" clip-rule="evenodd" d="M0 0H6.04364V1.66721H1.66721V5.41844H0V0ZM20.8401 1.66721H16.4637V0H22.5074V5.41844H20.8401V1.66721ZM1.66721 18.3393V14.5881H0V20.0065H6.04364V18.3393H1.66721Z" fill="#2C3760"/>
</svg>
