<svg width="129" height="29" viewBox="0 0 129 29" fill="none" xmlns="http://www.w3.org/2000/svg">
<path d="M45.2176 8.13796H55.1807V10.5251H48.135V13.6496H54.3035V16.0091H48.135V21.7051H45.2176V8.13796Z" fill="white"/>
<path d="M59.7284 10.4606H56.9731V8.03657H59.7284V10.4606ZM56.9731 11.6588H59.7284V21.7051H56.9731V11.6588Z" fill="white"/>
<path d="M68.1279 11.4192C69.2021 11.4192 70.0792 11.6926 70.7593 12.2394C71.4457 12.7802 71.789 13.6803 71.789 14.94V21.7051H69.005V15.5944C69.005 15.0659 68.9319 14.6604 68.7857 14.3778C68.5188 13.8616 68.0103 13.6035 67.2603 13.6035C66.3387 13.6035 65.7062 13.9814 65.363 14.7372C65.185 15.1366 65.0961 15.6466 65.0961 16.2672V21.7051H62.3884V11.6772H65.0103V13.1427C65.3598 12.6266 65.6903 12.2548 66.0018 12.0275C66.5611 11.6219 67.2698 11.4192 68.1279 11.4192Z" fill="white"/>
<path d="M78.1386 11.4192C78.7679 11.4192 79.3272 11.5543 79.8166 11.8247C80.306 12.0889 80.7033 12.4576 81.0084 12.9307V8.13796H83.7637V21.7051H81.1228V20.3134C80.7351 20.9094 80.2933 21.3426 79.7975 21.613C79.3018 21.8833 78.6852 22.0185 77.9479 22.0185C76.7339 22.0185 75.7106 21.5454 74.878 20.5991C74.0517 19.6467 73.6386 18.427 73.6386 16.94C73.6386 15.2257 74.0453 13.877 74.8589 12.8938C75.6788 11.9107 76.7721 11.4192 78.1386 11.4192ZM78.7297 19.8065C79.4988 19.8065 80.0836 19.53 80.484 18.977C80.8844 18.4239 81.0846 17.7081 81.0846 16.8294C81.0846 15.6005 80.7637 14.7219 80.1217 14.1934C79.7276 13.8739 79.27 13.7141 78.7488 13.7141C77.9543 13.7141 77.3695 14.006 76.9945 14.5897C76.6259 15.1673 76.4416 15.8862 76.4416 16.7465C76.4416 17.6743 76.6291 18.4178 77.0041 18.977C77.3854 19.53 77.9607 19.8065 78.7297 19.8065Z" fill="white"/>
<path d="M87.7013 17.3364C87.7458 18.1044 87.9333 18.7281 88.2638 19.2074C88.893 20.1045 90.0021 20.553 91.5912 20.553C92.303 20.553 92.9513 20.4547 93.5361 20.2581C94.6675 19.8771 95.2332 19.1951 95.2332 18.212C95.2332 17.4746 94.9948 16.9493 94.5181 16.6359C94.035 16.3287 93.2787 16.0614 92.249 15.834L90.3517 15.4193C89.1123 15.1489 88.2352 14.8509 87.7203 14.5252C86.8305 13.9599 86.3856 13.115 86.3856 11.9906C86.3856 10.774 86.821 9.77548 87.6917 8.99512C88.5625 8.21476 89.7956 7.82458 91.3909 7.82458C92.8592 7.82458 94.105 8.16868 95.1283 8.85687C96.158 9.53892 96.6728 10.6326 96.6728 12.1381H94.8899C94.7946 11.413 94.5912 10.8569 94.2798 10.4698C93.7014 9.76319 92.7193 9.40988 91.3337 9.40988C90.2151 9.40988 89.411 9.63723 88.9216 10.0919C88.4322 10.5466 88.1875 11.0751 88.1875 11.6772C88.1875 12.3408 88.4735 12.8263 89.0456 13.1335C89.4206 13.3301 90.2691 13.5759 91.5912 13.8708L93.5552 14.304C94.5022 14.5129 95.2332 14.7987 95.748 15.1612C96.6378 15.7941 97.0828 16.7127 97.0828 17.917C97.0828 19.4163 96.5171 20.4885 95.3857 21.1337C94.2607 21.7789 92.9513 22.1015 91.4577 22.1015C89.7161 22.1015 88.3528 21.6713 87.3676 20.8111C86.3824 19.957 85.8993 18.7988 85.9184 17.3364H87.7013Z" fill="white"/>
<path d="M103.194 11.5482C104.345 11.5482 105.279 11.8185 105.997 12.3593C106.722 12.9 107.157 13.8309 107.303 15.152H105.635C105.533 14.5437 105.301 14.0398 104.939 13.6404C104.577 13.2349 103.995 13.0321 103.194 13.0321C102.101 13.0321 101.319 13.5482 100.849 14.5805C100.544 15.2503 100.391 16.0767 100.391 17.0599C100.391 18.0491 100.607 18.8817 101.039 19.5576C101.472 20.2335 102.152 20.5715 103.08 20.5715C103.792 20.5715 104.354 20.3626 104.767 19.9447C105.187 19.5208 105.476 18.9432 105.635 18.212H107.303C107.113 19.5208 106.636 20.4793 105.873 21.0876C105.11 21.6898 104.135 21.9909 102.946 21.9909C101.611 21.9909 100.547 21.5208 99.7523 20.5807C98.9578 19.6344 98.5605 18.4547 98.5605 17.0414C98.5605 15.3087 98.9959 13.9599 99.8667 12.9952C100.737 12.0305 101.847 11.5482 103.194 11.5482Z" fill="white"/>
<path d="M110.335 19.0783C110.335 19.5576 110.516 19.9355 110.879 20.212C111.241 20.4885 111.67 20.6268 112.166 20.6268C112.769 20.6268 113.354 20.4916 113.92 20.2212C114.873 19.7727 115.35 19.0384 115.35 18.0184V16.682C115.14 16.811 114.87 16.9185 114.54 17.0046C114.209 17.0906 113.885 17.152 113.567 17.1889L112.528 17.3179C111.905 17.3978 111.438 17.5238 111.126 17.6958C110.599 17.9846 110.335 18.4455 110.335 19.0783ZM114.492 15.7234C114.886 15.6743 115.15 15.5145 115.283 15.2441C115.36 15.0967 115.398 14.8847 115.398 14.6082C115.398 14.0429 115.188 13.6343 114.768 13.3823C114.355 13.1243 113.761 12.9952 112.986 12.9952C112.089 12.9952 111.454 13.2287 111.079 13.6957C110.869 13.9538 110.732 14.3378 110.669 14.8478H109.067C109.099 13.6312 109.506 12.7863 110.287 12.3132C111.076 11.8339 111.988 11.5943 113.024 11.5943C114.225 11.5943 115.201 11.8155 115.951 12.2579C116.694 12.7003 117.066 13.3885 117.066 14.3225V20.0092C117.066 20.1813 117.101 20.3195 117.171 20.424C117.247 20.5285 117.403 20.5807 117.638 20.5807C117.714 20.5807 117.8 20.5776 117.896 20.5715C117.991 20.5592 118.093 20.5438 118.201 20.5254V21.7512C117.934 21.825 117.73 21.871 117.59 21.8895C117.451 21.9079 117.26 21.9171 117.018 21.9171C116.427 21.9171 115.998 21.7144 115.731 21.3088C115.592 21.0938 115.493 20.7896 115.436 20.3963C115.086 20.8388 114.584 21.2228 113.929 21.5485C113.275 21.8741 112.553 22.0369 111.765 22.0369C110.818 22.0369 110.043 21.7604 109.439 21.2074C108.841 20.6483 108.543 19.9509 108.543 19.1152C108.543 18.1997 108.838 17.49 109.429 16.9861C110.02 16.4823 110.796 16.172 111.756 16.0552L114.492 15.7234Z" fill="white"/>
<path d="M119.888 11.8339H121.519V13.2349C122.002 12.6573 122.513 12.2425 123.053 11.9906C123.594 11.7387 124.194 11.6127 124.855 11.6127C126.305 11.6127 127.283 12.1012 127.792 13.0782C128.072 13.6128 128.211 14.3778 128.211 15.3732V21.7051H126.467V15.4838C126.467 14.8816 126.375 14.3962 126.19 14.0275C125.885 13.4131 125.332 13.1058 124.531 13.1058C124.124 13.1058 123.791 13.1458 123.53 13.2257C123.06 13.3608 122.647 13.6312 122.291 14.0367C122.005 14.3624 121.817 14.7003 121.728 15.0506C121.646 15.3947 121.604 15.8893 121.604 16.5345V21.7051H119.888V11.8339Z" fill="white"/>
<path fill-rule="evenodd" clip-rule="evenodd" d="M13.873 20.7385C18.1298 20.7385 21.5805 17.4025 21.5805 13.2874C21.5805 9.17228 18.1298 5.83632 13.873 5.83632C9.61628 5.83632 6.16551 9.17228 6.16551 13.2874C6.16551 17.4025 9.61628 20.7385 13.873 20.7385ZM13.873 22.7254C19.2649 22.7254 23.6359 18.4999 23.6359 13.2874C23.6359 8.07492 19.2649 3.84937 13.873 3.84937C8.48115 3.84937 4.11017 8.07492 4.11017 13.2874C4.11017 18.4999 8.48115 22.7254 13.873 22.7254Z" fill="white"/>
<path fill-rule="evenodd" clip-rule="evenodd" d="M20.8758 17.868L31.6663 26.3126L31.0197 27.0848L20.2292 18.6402L20.8758 17.868Z" fill="white"/>
<path fill-rule="evenodd" clip-rule="evenodd" d="M24.4189 18.7002L32.6403 25.1578L30.0481 28.242L21.8268 21.7844L24.4189 18.7002Z" fill="white"/>
<path fill-rule="evenodd" clip-rule="evenodd" d="M13.873 8.32002C11.0352 8.32002 8.7347 10.544 8.7347 13.2874H7.70703C7.70703 9.99531 10.4676 7.32654 13.873 7.32654V8.32002Z" fill="white"/>
<path fill-rule="evenodd" clip-rule="evenodd" d="M-0.000244141 0.870239H7.45036V2.85719H2.05509V7.32785H-0.000244141V0.870239ZM25.6915 2.85719H20.2962V0.870239H27.7468V7.32785H25.6915V2.85719ZM2.05509 22.7268V18.2561H-0.000244141V24.7137H7.45036V22.7268H2.05509Z" fill="#50A6F4"/>
</svg>
