<svg width="30" height="30" viewBox="0 0 30 30" fill="none" xmlns="http://www.w3.org/2000/svg">
<circle cx="15" cy="15" r="15" fill="#DCF3DC"/>
<g clip-path="url(#clip0_98_407)">
<path d="M15.0002 10.3802C14.6231 10.3802 14.3403 10.6631 14.3403 11.0402L14.3403 14.34L11.0404 14.34C10.6633 14.34 10.3805 14.6229 10.3805 15C10.3805 15.3771 10.6633 15.66 11.0404 15.66L14.3403 15.66L14.2931 19.0069C14.2931 19.3841 14.576 19.6669 14.9531 19.6669C15.3302 19.6669 15.6131 19.3841 15.6131 19.0069L15.6131 15.7071H18.9129C19.29 15.7071 19.5729 15.4243 19.5729 15.0471C19.5729 14.67 19.29 14.3872 18.9129 14.3872L15.6602 14.34L15.7073 10.9931C15.6602 10.6631 15.3302 10.3331 15.0002 10.3802ZM9.34338 9.34315C6.23211 12.4544 6.23211 17.5456 9.34338 20.6569C12.4546 23.7681 17.5458 23.7681 20.6571 20.6569C23.7684 17.5456 23.7684 12.4544 20.6571 9.34315C17.5458 6.23188 12.4546 6.23188 9.34338 9.34315ZM19.7143 19.714C17.1216 22.3068 12.8789 22.3068 10.2862 19.714C7.69346 17.1213 7.69346 12.8787 10.2862 10.286C12.8789 7.69323 17.1216 7.69323 19.7143 10.286C22.307 12.8787 22.307 17.1213 19.7143 19.714Z" fill="#93CB9C"/>
</g>
<defs>
<clipPath id="clip0_98_407">
<rect width="16" height="16" fill="white" transform="translate(3.68652 15) rotate(-45)"/>
</clipPath>
</defs>
</svg>
