<svg width="30" height="30" viewBox="0 0 30 30" fill="none" xmlns="http://www.w3.org/2000/svg">
<circle cx="15" cy="15" r="15" fill="#E3F3FF"/>
<g clip-path="url(#clip0_98_624)">
<path d="M19.6 9.73333C19.3333 8.2 17.9333 7 16.3333 7H9V23H15.6667V21.6667H10.3333V8.33333H16.3333C17.4667 8.33333 18.3333 9.2 18.3333 10.3333V11H19C20.1333 11 21 11.8667 21 13V13.6667H22.3333V13C22.3333 11.4 21.1333 10 19.6 9.73333ZM21 15.6667H20.3333V15H19V15.6667H18.3333C17.6 15.6667 17 16.2667 17 17V17.8667C17 18.4667 17.3333 18.9333 17.9333 19.1333L21 20.1333V21H18.3333V20.3333H17V21C17 21.7333 17.6 22.3333 18.3333 22.3333H19V23H20.3333V22.3333H21C21.7333 22.3333 22.3333 21.7333 22.3333 21V20.1333C22.3333 19.5333 22 19.0667 21.4 18.8667L18.3333 17.8667V17H21V17.6667H22.3333V17C22.3333 16.2667 21.7333 15.6667 21 15.6667ZM11.6667 11V12.3333H15V11H11.6667ZM11.6667 15H17V13.6667H11.6667V15Z" fill="#8AAFE8"/>
</g>
<defs>
<clipPath id="clip0_98_624">
<rect width="13.3333" height="16" fill="white" transform="translate(9 7)"/>
</clipPath>
</defs>
</svg>
