<svg width="16" height="16" viewBox="0 0 16 16" fill="none" xmlns="http://www.w3.org/2000/svg">
<path d="M2.66667 0C1.2 0 0 1.2 0 2.66667C0 4.13333 1.2 5.33333 2.66667 5.33333C4.13333 5.33333 5.33333 4.13333 5.33333 2.66667C5.33333 1.2 4.13333 0 2.66667 0ZM2.66667 4C1.93333 4 1.33333 3.4 1.33333 2.66667C1.33333 1.93333 1.93333 1.33333 2.66667 1.33333C3.4 1.33333 4 1.93333 4 2.66667C4 3.4 3.4 4 2.66667 4ZM2.66667 6C1.53333 6 0.666667 6.86667 0.666667 8V14.6667H2V8C2 7.6 2.26667 7.33333 2.66667 7.33333C3.06667 7.33333 3.33333 7.6 3.33333 8V14.6667H4.66667V8C4.66667 6.86667 3.8 6 2.66667 6ZM13.3333 5.33333C14.8 5.33333 16 4.13333 16 2.66667C16 1.2 14.8 0 13.3333 0C11.8667 0 10.6667 1.2 10.6667 2.66667C10.6667 4.13333 11.8667 5.33333 13.3333 5.33333ZM13.3333 1.33333C14.0667 1.33333 14.6667 1.93333 14.6667 2.66667C14.6667 3.4 14.0667 4 13.3333 4C12.6 4 12 3.4 12 2.66667C12 1.93333 12.6 1.33333 13.3333 1.33333ZM13.3333 6C12.2 6 11.3333 6.86667 11.3333 8V14.6667H12.6667V8C12.6667 7.6 12.9333 7.33333 13.3333 7.33333C13.7333 7.33333 14 7.6 14 8V14.6667H15.3333V8C15.3333 6.86667 14.4667 6 13.3333 6ZM8 2.66667C6.53333 2.66667 5.33333 3.86667 5.33333 5.33333C5.33333 6.8 6.53333 8 8 8C9.46667 8 10.6667 6.8 10.6667 5.33333C10.6667 3.86667 9.46667 2.66667 8 2.66667ZM8 6.66667C7.26667 6.66667 6.66667 6.06667 6.66667 5.33333C6.66667 4.6 7.26667 4 8 4C8.73333 4 9.33333 4.6 9.33333 5.33333C9.33333 6.06667 8.73333 6.66667 8 6.66667ZM8 8.66667C6.86667 8.66667 6 9.53333 6 10.6667V16H7.33333V10.6667C7.33333 10.2667 7.6 10 8 10C8.4 10 8.66667 10.2667 8.66667 10.6667V16H10V10.6667C10 9.53333 9.13333 8.66667 8 8.66667Z" fill="#93CB9C"/>
</svg>
