<svg width="16" height="12" viewBox="0 0 16 12" fill="none" xmlns="http://www.w3.org/2000/svg">
<path d="M8.4 7.2C9.4 6.46667 10 5.26667 10 4C10 1.8 8.2 0 6 0C3.8 0 2 1.8 2 4C2 5.26667 2.6 6.46667 3.6 7.2C1.66667 8.06667 0.266667 9.86667 0 12H1.33333C1.66667 9.73333 3.66667 8 6 8C8.33333 8 10.3333 9.73333 10.6667 12H12C11.7333 9.86667 10.3333 8.06667 8.4 7.2ZM3.33333 4C3.33333 2.53333 4.53333 1.33333 6 1.33333C7.46667 1.33333 8.66667 2.53333 8.66667 4C8.66667 5.46667 7.46667 6.66667 6 6.66667C4.53333 6.66667 3.33333 5.46667 3.33333 4Z" fill="#E8B599"/>
<path d="M13.8002 7.13343C14.3335 6.4001 14.6669 5.6001 14.6669 4.66676C14.6669 2.26676 12.5335 0.400096 10.2002 0.666762C10.4002 0.866762 10.5335 1.13343 10.6669 1.4001C10.8002 1.6001 10.8669 1.8001 10.9335 2.0001C12.5335 2.26676 13.3335 3.46676 13.3335 4.66676C13.3335 5.53343 12.8669 6.33343 12.2669 6.8001C12.1335 6.93343 12.0002 7.13343 12.0002 7.33343C12.0002 7.66676 12.2002 7.93343 12.5335 8.0001C13.7335 8.26676 14.6669 9.33343 14.6669 10.6001H16.0002C16.0002 9.13343 15.1335 7.8001 13.8002 7.13343Z" fill="#E8B599"/>
</svg>
