<svg width="16" height="14" viewBox="0 0 16 14" fill="none" xmlns="http://www.w3.org/2000/svg">
<path d="M7.8 1.53333C8.66667 1.06666 10 1.53333 11.2667 1.99999C12.2 2.33333 13.1333 2.66666 14 2.66666C14.8667 2.66666 15.6 2.26666 15.9333 1.59999L14.7333 0.999995C14.6667 1.19999 14.4 1.33333 14 1.33333C13.3333 1.33333 12.5333 1.06666 11.6667 0.733328C10.2 0.199995 8.53333 -0.333339 7.2 0.333328C6.46667 0.733328 5.86667 1.53333 5.53333 2.66666H7C7.2 2.13333 7.46667 1.73333 7.8 1.53333ZM10 3.99999V3.33333H2.66667V3.99999C2.66667 7.39999 1.8 10.2 0.133333 12.2667L0 12.4V14H1.33333V12.8667C3 10.7333 3.86667 7.93333 4 4.66666H8.66667C8.8 7.99999 9.66667 10.7333 11.3333 12.8667V14H12.6667V12.4L12.5333 12.2C10.8667 10.1333 10 7.39999 10 3.99999ZM15.8 12.2C14.8 11.1333 13.3333 8.46666 13.3333 5.99999V5.33333H11.3333V6.66666H12C12.2 9.19999 13.5333 11.7333 14.6667 12.9333V14H16V12.4L15.8 12.2Z" fill="#8FD1C5"/>
</svg>
