<svg width="16" height="16" viewBox="0 0 16 16" fill="none" xmlns="http://www.w3.org/2000/svg">
<path d="M7.33333 14.6667C4 14.6667 1.33333 12 1.33333 8.66667C1.33333 5.6 3.66667 3.06667 6.66667 2.73333V1.4C2.93333 1.73333 0 4.86667 0 8.66667C0 12.7333 3.26667 16 7.33333 16C11.1333 16 14.2667 13.0667 14.6 9.33333H13.2667C12.9333 12.3333 10.4 14.6667 7.33333 14.6667ZM8.66667 0H8V8H16V7.33333C16 3.26667 12.7333 0 8.66667 0ZM9.33333 1.4C12.1333 1.73333 14.3333 3.93333 14.6 6.66667H9.33333" fill="#C0C0E4"/>
</svg>
