<svg width="30" height="30" viewBox="0 0 30 30" fill="none" xmlns="http://www.w3.org/2000/svg">
<circle cx="15" cy="15" r="15" fill="#FFE0E0"/>
<path d="M15.6667 9.66667C15.6667 8.2 14.4667 7 13 7C11.5333 7 10.3333 8.2 10.3333 9.66667C10.3333 11.1333 11.5333 12.3333 13 12.3333C14.4667 12.3333 15.6667 11.1333 15.6667 9.66667ZM13 11C12.2667 11 11.6667 10.4 11.6667 9.66667C11.6667 8.93333 12.2667 8.33333 13 8.33333C13.7333 8.33333 14.3333 8.93333 14.3333 9.66667C14.3333 10.4 13.7333 11 13 11ZM10.6667 13C9.73333 13 9 13.7333 9 14.6667V18.3333H10.3333V14.6667C10.3333 14.4667 10.4667 14.3333 10.6667 14.3333C10.8667 14.3333 11 14.4667 11 14.6667V23H12.3333V14.6667C12.3333 13.7333 11.6 13 10.6667 13ZM21 17.6667V17C21 16.2667 20.4 15.6667 19.6667 15.6667H19V15H17.6667V15.6667H17C16.2667 15.6667 15.6667 16.2667 15.6667 17V17.8667C15.6667 18.4667 16 18.9333 16.6 19.1333L19.6667 20.1333V21H17V20.3333H15.6667V21C15.6667 21.7333 16.2667 22.3333 17 22.3333H17.6667V23H19V22.3333H19.6667C20.4 22.3333 21 21.7333 21 21V20.1333C21 19.5333 20.6667 19.0667 20.0667 18.8667L17 17.8667V17H19.6667V17.6667H21ZM19 13H15C14.2667 13 13.6667 13.6 13.6667 14.3333V23H15V14.3333H19V13Z" fill="#F3ADAD"/>
</svg>
